<!DOCTYPE svg PUBLIC "-//W3C//DTD SVG 1.1//EN" "http://www.w3.org/Graphics/SVG/1.1/DTD/svg11.dtd">
<!-- Uploaded to: SVG Repo, www.svgrepo.com, Transformed by: SVG Repo Mixer Tools -->
<svg width="800px" height="800px" viewBox="0 0 24 24" xmlns="http://www.w3.org/2000/svg" fill="#ffffff">
<g id="SVGRepo_bgCarrier" stroke-width="0"/>
<g id="SVGRepo_tracerCarrier" stroke-linecap="round" stroke-linejoin="round" stroke="#CCCCCC" stroke-width="0.192"/>
<g id="SVGRepo_iconCarrier">
<path d="M0,0H24V24H0Z" fill="none"/>
<path d="M15,7.8A4.18,4.18,0,0,0,12.19,7H9V17h2.12V13.44H12a4.32,4.32,0,0,0,2.87-.84,3.11,3.11,0,0,0,1-2.48A2.87,2.87,0,0,0,15,7.8Zm-1.67,3.53a2.36,2.36,0,0,1-1.46.38h-.7v-3h1a2,2,0,0,1,1.27.36,1.41,1.41,0,0,1,.41,1.1A1.38,1.38,0,0,1,13.28,11.33Z"/>
<path d="M12,4a8,8,0,1,1-8,8,8,8,0,0,1,8-8m0-2A10,10,0,1,0,22,12,10,10,0,0,0,12,2Z"/>
</g>
</svg>